:SAMPLES-PER-SECOND 30
:FULLY-SPECIFIED
:DEGREES
599
root  70.3049 37.5525 12.9776 -158.286 82.5733 -165.824
RightUpLeg  -30.634 10.0419 -4.70858
RightLeg  24.5212 8.97305 4.23398
RightFoot  -0.0430261 -0.206792 2.08674
RightToes  5.82063e-011 0 -3.6325e-017
Spine  33.7466 -1.12182 1.2726
Spine1  2.24494 0.216791 -4.55664
HEad  -53.1705 22.3077 -23.9588
LeftShoulder1  1.00745 -7.29664 -1.01343
LeftArm  -57.0492 -69.7116 5.71406
LeftForeArm  -48.764 -17.7427 -3.59962
LeftHand  0.497337 15.0078 6.70813
RightShoulder  0.462596 3.36747 -1.95443
RightArm  8.03479 72.5467 25.9731
RightForeArm  -35.3704 57.8658 21.9472
RightHand  -1.9148 -2.03394 -16.9545
LeftUpLeg  -32.0972 9.65892 4.80808
LeftLeg  17.2693 -8.11198 -2.59298
LeftFoot  10.583 0.0345298 -0.513568
LeftToes  1.68253e-010 -3.2327e-011 -2.69673e-012
600
root  70.2734 37.4809 13.4142 -162.992 81.2047 -170.267
RightUpLeg  -30.8699 8.46565 -4.048
RightLeg  25.8658 8.78272 4.39883
RightFoot  -0.465997 -0.150103 1.54545
RightToes  5.82063e-011 0 -3.6325e-017
Spine  33.6355 -1.42844 1.93525
Spine1  2.36222 0.250336 -5.44723
HEad  -54.8584 23.8793 -26.8405
LeftShoulder1  1.03397 -7.80812 -0.796466
LeftArm  -55.7829 -68.8574 3.7192
LeftForeArm  -43.9152 -19.2528 -4.50873
LeftHand  0.305843 13.7568 5.12553
RightShoulder  0.512696 3.12287 -0.812577
RightArm  31.4145 68.8968 39.1285
RightForeArm  -41.9523 71.1684 39.7258
RightHand  -8.19447 14.8901 -48.9543
LeftUpLeg  -31.9909 8.3036 5.26399
LeftLeg  16.7989 -8.29352 -2.55818
LeftFoot  11.1735 0.113355 -0.912459
LeftToes  1.68253e-010 -3.2327e-011 -2.69673e-012
601
root  70.2373 37.4189 13.8934 -165.95 79.5665 -172.764
RightUpLeg  -30.7392 5.44694 -2.84027
RightLeg  27.0174 9.67497 5.10248
RightFoot  -0.623189 -0.0484006 0.471115
RightToes  5.82063e-011 0 -3.6325e-017
Spine  33.2533 -1.34987 1.82144
Spine1  3.41413 0.0851885 -4.51073
HEad  -58.2404 26.1462 -30.9933
LeftShoulder1  1.06078 -7.64882 -1.21901
LeftArm  -58.3575 -67.8358 2.09406
LeftForeArm  -33.3767 -21.4212 -5.33725
LeftHand  0.0453645 12.2008 1.60521
RightShoulder  0.532606 2.94848 -0.216213
RightArm  16.1602 66.8188 30.5011
RightForeArm  -22.262 71.3702 40.3363
RightHand  -2.26736 -1.10278 -41.2414
LeftUpLeg  -31.6212 7.16267 5.79543
LeftLeg  16.0648 -8.84034 -2.57798
LeftFoot  11.7846 0.270651 -1.67615
LeftToes  1.68253e-010 -3.2327e-011 -2.69673e-012
602
root  70.1721 37.3033 14.46 -170.229 77.7676 -176.276
RightUpLeg  -30.5141 3.03985 -2.09803
RightLeg  28.3947 9.75661 5.45084
RightFoot  -1.24676 -0.0132403 0.0495973
RightToes  5.82063e-011 0 -3.6325e-017
Spine  33.6577 -1.44992 1.67507
Spine1  3.54771 -0.0495694 -4.60983
HEad  -59.0272 26.3976 -32.7292
LeftShoulder1  1.08182 -7.40672 -1.68059
LeftArm  -60.2793 -67.2163 0.250059
LeftForeArm  -22.1175 -23.9542 -6.13093
LeftHand  -0.154246 9.01423 -3.05505
RightShoulder  0.603554 2.79149 1.31054
RightArm  12.7049 62.996 28.8369
RightForeArm  -6.22524 71.7945 42.979
RightHand  -1.30468 -5.04567 -25.7166
LeftUpLeg  -31.1333 5.95886 6.07582
LeftLeg  15.5408 -9.54539 -2.63499
LeftFoot  12.2008 0.480264 -2.66454
LeftToes  1.68253e-010 -3.2327e-011 -2.69673e-012
603
root  70.1059 37.1935 15.0338 -171.293 75.5059 -177.018
RightUpLeg  -30.7843 0.429165 -0.958353
RightLeg  29.5566 9.80439 5.7398
RightFoot  -1.5104 0.0981047 -1.24773
RightToes  5.82063e-011 0 -3.6325e-017
Spine  33.1468 -1.26645 1.51883
Spine1  4.31415 -0.347194 -3.07823
HEad  -61.9058 27.1526 -36.6184
LeftShoulder1  1.11239 -7.17498 -2.24583
LeftArm  -58.9648 -66.2132 -2.65894
LeftForeArm  -16.9451 -27.6221 -6.80273
LeftHand  -0.204484 8.46922 -5.11418
RightShoulder  0.649286 2.51316 2.67928
RightArm  42.6331 57.3263 41.1931
RightForeArm  3.80756 77.7 90.3125
RightHand  -15.8015 33.5317 -46.9237
LeftUpLeg  -31.1738 4.87981 6.57711
LeftLeg  14.7689 -10.6037 -2.67794
LeftFoot  12.7672 0.667876 -3.49153
LeftToes  1.68253e-010 -3.2327e-011 -2.69673e-012
604
root  70.0306 37.1154 15.5975 -172.758 72.799 -178.059
RightUpLeg  -30.8594 -2.84168 0.00100728
RightLeg  30.4397 10.0778 6.11465
RightFoot  -1.42072 0.258621 -3.09817
RightToes  5.82063e-011 0 -3.6325e-017
Spine  33.0032 -1.64585 2.2753
Spine1  4.37829 -0.651565 -3.12887
HEad  -63.851 28.9967 -40.1966
LeftShoulder1  1.13124 -7.3446 -2.25955
LeftArm  -55.623 -64.9808 -6.26297
LeftForeArm  -15.5543 -31.1118 -7.62003
LeftHand  -0.397639 10.7171 -7.03723
RightShoulder  0.711626 2.25326 4.47701
RightArm  51.0363 51.9029 43.1696
RightForeArm  5.68874 77.2338 100.588
RightHand  -18.4289 48.6331 -37.6413
LeftUpLeg  -30.6628 3.49471 6.87747
LeftLeg  13.0083 -12.1627 -2.44624
LeftFoot  12.7074 1.09694 -5.52476
LeftToes  1.68253e-010 -3.2327e-011 -2.69673e-012
605
root  69.9677 37.0336 16.1652 -174.936 69.8638 -179.661
RightUpLeg  -30.6886 -6.5987 0.610462
RightLeg  31.2888 10.6677 6.69171
RightFoot  -1.8183 0.342257 -4.24898
RightToes  5.82063e-011 0 -3.6325e-017
Spine  32.8578 -1.92684 2.61294
Spine1  4.63596 -0.916074 -3.08287
HEad  -66.9233 31.3529 -44.0101
LeftShoulder1  1.13831 -7.25681 -2.4307
LeftArm  -51.6535 -64.203 -9.78993
LeftForeArm  -16.549 -34.4916 -8.60402
LeftHand  -0.233765 9.75798 -4.61407
RightShoulder  0.738851 1.81497 6.20668
RightArm  39.4269 49.2031 39.127
RightForeArm  27.593 77.6201 104.603
RightHand  -10.3343 34.4324 -26.026
LeftUpLeg  -30.3538 2.41145 6.72779
LeftLeg  12.1399 -12.9777 -2.20631
LeftFoot  11.6694 1.2921 -6.68101
LeftToes  1.68253e-010 -3.2327e-011 -2.69673e-012
